# AST/ASF file generated using VICON BodyLanguage
# -----------------------------------------------
:version 1.10
:name VICON
:units
  mass 1.0
  length 0.45
  angle deg
:documentation
   .ast/.asf automatically generated from VICON data using
   VICON BodyBuilder and BodyLanguage model FoxedUp or BRILLIANT.MOD
:root
   order TX TY TZ RX RY RZ
   axis XYZ
   position 0 0 0  
   orientation 0 0 0 
:bonedata
  begin
     id 1 
     name lhipjoint
     direction 0.612567 -0.751349 0.245431 
     length 2.42285 
     axis 0 0 0  XYZ
  end
  begin
     id 2 
     name lfemur
     direction 0.34202 -0.939693 0  
     length 7.11304  
     axis 0 0 20  XYZ
    dof rx ry rz
    limits (-160.0 20.0)
           (-70.0 70.0)
           (-60.0 70.0)
  end
  begin
     id 3 
     name ltibia
     direction 0.34202 -0.939693 0   
     length 7.84529   
     axis 0 0 20   XYZ
    dof rx
    limits (-10.0 170.0)
  end
  begin
     id 4 
     name lfoot
     direction 0.0779239 -0.214094 0.9737   
     length 1.97176   
     axis -90 7.62852e-016 20   XYZ
    dof rx rz
    limits (-45.0 90.0)
           (-70.0 20.0)
  end
  begin
     id 5 
     name ltoes
     direction 1.53565e-011 -4.21709e-011 1   
     length 0.993197   
     axis -90 7.62852e-016 20   XYZ
    dof rx
    limits (-90.0 20.0)
  end
  begin
     id 6 
     name rhipjoint
     direction -0.665722 -0.709315 0.231701   
     length 2.56642  
     axis 0 0 0  XYZ 
  end
  begin
     id 7 
     name rfemur
     direction -0.34202 -0.939693 0   
     length 7.32108   
     axis 0 0 -20   XYZ
    dof rx ry rz
    limits (-160.0 20.0)
           (-70.0 70.0)
           (-70.0 60.0)
  end
  begin
     id 8 
     name rtibia
     direction -0.34202 -0.939693 0   
     length 7.81254   
     axis 0 0 -20   XYZ
    dof rx
    limits (-10.0 170.0)
 end
 begin
     id 9 
     name rfoot
     direction -0.0832806 -0.228812 0.969902   
     length 2.08278  
     axis -90 -7.62852e-016 -20   XYZ
    dof rx rz
    limits (-45.0 90.0)
           (-20.0 70.0)
  end
  begin
     id 10 
     name rtoes
     direction -1.53589e-011 -4.22086e-011 1   
     length 1.04609   
     axis -90 -7.62852e-016 -20   XYZ
    dof rx
    limits (-90.0 20.0)
  end
  begin
     id 11 
     name lowerback
     direction -0.00506013 0.988403 -0.151766   
     length 2.01978   
     axis 0 0 0   XYZ
    dof rx ry rz
    limits (-20.0 45.0)
           (-30.0 30.0)
           (-30.0 30.0)
  end
  begin
     id 12 
     name upperback
     direction -0.00836389 0.99968 0.0238859   
     length 2.01276   
     axis 0 0 0   XYZ
    dof rx ry rz
    limits (-20.0 45.0)
           (-30.0 30.0)
           (-30.0 30.0)
  end
  begin
     id 13 
     name thorax
     direction -0.00684136 0.995386 0.0957043   
     length 2.07303   
     axis 0 0 0   XYZ
    dof rx ry rz
    limits (-20.0 45.0)
           (-30.0 30.0)
           (-30.0 30.0)
  end
  begin
     id 14 
     name lowerneck
     direction -0.0161045 0.999661 0.0204485   
     length 1.91243   
     axis 0 0 0   XYZ
    dof rx ry rz
    limits (-20.0 45.0)
           (-30.0 30.0)
           (-30.0 30.0)
  end
  begin
     id 15 
     name upperneck
     direction 0.0553583 0.990946 -0.122319   
     length 1.91574   
     axis 0 0 0   XYZ
    dof rx ry rz
    limits (-20.0 45.0)
           (-30.0 30.0)
           (-30.0 30.0)
  end
  begin
     id 16
     name head
     direction 0.0180273 0.998839 -0.0446756  
     length 1.92693  
     axis 0 0 0   XYZ
    dof rx ry rz
    limits (-20.0 45.0)
           (-30.0 30.0)
           (-30.0 30.0)
  end
  begin
     id 17 
     name lclavicle
     direction 0.945646 0.319323 -0.0615358  
     length 4.0076  
     axis 0 0 0   XYZ
    dof ry rz
    limits (-20.0 10.0)
           (0.0 20.0)
  end
  begin
     id 18 
     name lhumerus
     direction 1 -4.48967e-011 -2.79996e-027   
     length 5.64147   
     axis 180 -30 -90   XYZ
    dof rx ry rz
    limits (-60.0 90.0)
           (-90.0 90.0)
           (-90.0 90.0)
  end
  begin
     id 19
     name lradius
     direction 1 -4.48976e-011 -9.5122e-027   
     length 2.86444   
     axis 180 -30 -90   XYZ
    dof rx
    limits (-10.0 170.0)
  end
  begin
     id 20
     name lwrist
     direction 1 -4.48983e-011 -1.24047e-026   
     length 1.43222   
     axis 9.05591e-015 90 90   XYZ
    dof ry
    limits (-180.0 0.0)
 end
  begin
     id 21 
     name lhand
     direction 1 -4.4892e-011 -2.48094e-026   
     length 0.722123   
     axis 1.58305e-014 90 90   XYZ
    dof rx rz
    limits (-90.0 90.0)
           (-45.0 45.0)
  end
  begin
     id 22 
     name lfingers
     direction 1 -4.48895e-011 -4.96187e-026   
     length 0.582194   
     axis 3.1661e-014 90 90   XYZ
    dof rx
    limits (0.0 90.0)
  end
  begin
     id 23
     name lthumb
     direction 0.707107 -6.34961e-011 0.707107   
     length 0.835918   
     axis -90 45 2.85299e-015   XYZ
    dof rx rz
    limits (-45.0 45.0)
           (-45.0 45.0)
  end
  begin
     id 24 
     name rclavicle
     direction -0.932635 0.324218 -0.15835   
     length 3.65819  
     axis 0 0 0   XYZ 
    dof ry rz
    limits (-10.0 20.0)
           (-20.0 0.0)
  end
  begin
     id 25 
     name rhumerus
     direction -1 -4.48965e-011 -4.02296e-027  
     length 5.44729   
     axis 180 30 90   XYZ
    dof rx ry rz
    limits (-90.0 60.0)
           (-90.0 90.0)
           (-90.0 90.0)
  end
  begin
     id 26 
     name rradius
     direction -1 -4.48957e-011 -8.81087e-027   
     length 3.08821   
     axis 180 30 90   XYZ
    dof rx
    limits (-10.0 170.0)
  end
  begin
     id 27 
     name rwrist
     direction -1 -4.49015e-011 -1.24047e-026   
     length 1.5441   
     axis 9.05591e-015 -90 -90   XYZ
    dof ry
    limits (-180.0 0.0)
  end
  begin
     id 28
     name rhand
     direction -1 -4.4891e-011 -2.48094e-026   
     length 0.821049   
     axis 1.58305e-014 -90 -90   XYZ
    dof rx rz
    limits (-90.0 90.0)
           (-45.0 45.0)
  end
  begin
     id 29
     name rfingers
     direction -1 -4.48985e-011 -4.96187e-026   
     length 0.661951   
     axis 3.1661e-014 -90 -90   XYZ
    dof rx
    limits (0.0 90.0)
  end
  begin
     id 30
     name rthumb
     direction -0.707107 -6.34906e-011 0.707107   
     length 0.950433   
     axis -90 -45 -2.85299e-015   XYZ
    dof rx rz
    limits (-45.0 45.0)
           (-45.0 45.0)
  end
:hierarchy
  begin
    root lhipjoint rhipjoint lowerback
    lhipjoint lfemur
    lfemur ltibia
    ltibia lfoot
    lfoot ltoes
    rhipjoint rfemur
    rfemur rtibia
    rtibia rfoot
    rfoot rtoes
    lowerback upperback
    upperback thorax
    thorax lowerneck lclavicle rclavicle
    lowerneck upperneck
    upperneck head
    lclavicle lhumerus
    lhumerus lradius
    lradius lwrist
    lwrist lhand lthumb
    lhand lfingers
    rclavicle rhumerus
    rhumerus rradius
    rradius rwrist
    rwrist rhand rthumb
    rhand rfingers
  end

#!OML:ASF F:\VICON\USERDATA\INSTALL\rory3\rory3.ASF
:FULLY-SPECIFIED
:DEGREES
2243
root 3.40181 17.6912 0.159767 567.581 89.7942 569.261
lowerback 7.4966 0.326462 2.4868
upperback 0.413351 0.631319 -0.745452
thorax -3.74209 0.272047 -2.23746
lowerneck -0.709362 -4.97482 -4.75598
upperneck -4.41328 -6.3263 8.64155
head -0.815762 -3.16522 3.63831
rclavicle 4.7522e-016 2.28602e-015
rhumerus -42.2501 16.4138 -79.048
rradius 107.938
rwrist 27.4524
rhand -6.74864 9.97085
rfingers 7.12502
rthumb 19.1126 -19.1101
lclavicle 4.7522e-016 2.28602e-015
lhumerus -32.615 -24.197 84.0791
lradius 106.259
lwrist 23.5145
lhand -19.0648 3.17082
lfingers 7.12502
lthumb 7.24257 33.0269
rfemur 2.44136 0.580811 18.9227
rtibia 14.5841
rfoot -18.4388 -7.87931
rtoes -10.1844
lfemur 2.74037 0.296215 -16.3506
ltibia 8.87847
lfoot -10.2191 -0.373942
ltoes -4.61786
2244
root 3.39058 17.6936 0.165053 561.848 89.6257 563.497
lowerback 7.60985 0.26639 2.45927
upperback 0.348741 0.553124 -0.708969
thorax -3.8777 0.230991 -2.17769
lowerneck -0.74465 -4.96999 -4.8243
upperneck -4.24104 -6.3299 8.67793
head -0.750524 -3.16462 3.65836
rclavicle -8.29305e-016 -7.25564e-015
rhumerus -41.8187 16.7987 -78.3909
rradius 109.492
rwrist 27.8028
rhand -7.84253 10.0162
rfingers 7.12502
rthumb 18.0604 -19.1653
lclavicle -8.29305e-016 -7.25564e-015
lhumerus -32.047 -24.4001 83.6669
lradius 107.744
lwrist 23.1478
lhand -19.6817 2.20781
lfingers 7.12502
lthumb 6.64708 32.0835
rfemur 2.38487 0.613172 19.0089
rtibia 14.5942
rfoot -18.5368 -8.00206
rtoes -9.79388
lfemur 2.60144 0.132426 -16.2913
ltibia 8.93032
lfoot -10.1074 -0.358815
ltoes -4.50109
2245
root 3.3843 17.6946 0.167729 562.509 89.534 564.167
lowerback 7.66483 0.23408 2.45515
upperback 0.333578 0.512727 -0.669799
thorax -3.92692 0.210418 -2.13109
lowerneck -0.799626 -4.96861 -4.93707
upperneck -4.08789 -6.33584 8.73551
head -0.685583 -3.16444 3.69403
rclavicle -4.85469e-015 -6.95746e-016
rhumerus -41.2942 17.1377 -77.652
rradius 111.035
rwrist 28.2712
rhand -8.66116 10.0004
rfingers 7.12502
rthumb 17.2726 -19.252
lclavicle -4.85469e-015 -6.95746e-016
lhumerus -31.5312 -24.6932 83.3229
lradius 109.255
lwrist 22.7413
lhand -20.7774 1.47909
lfingers 7.12502
lthumb 5.58928 31.3854
rfemur 2.40825 0.62707 19.0689
rtibia 14.553
rfoot -18.6026 -8.05601
rtoes -9.49224
lfemur 2.51848 0.0478274 -16.2353
ltibia 9.01644
lfoot -10.0758 -0.389757
ltoes -4.24288
2246
root 3.38535 17.6928 0.166675 560.663 89.5914 562.336
lowerback 7.59809 0.239692 2.42506
upperback 0.339999 0.515659 -0.67298
thorax -3.88286 0.213059 -2.11699
lowerneck -0.752501 -4.95767 -4.97154
upperneck -4.00505 -6.32934 8.73149
head -0.666837 -3.16155 3.69896
rclavicle 2.637e-015 7.30534e-015
rhumerus -40.7464 17.5197 -76.957
rradius 112.579
rwrist 28.5027
rhand -9.25044 9.93181
rfingers 7.12502
rthumb 16.7053 -19.3694
lclavicle 2.637e-015 7.30534e-015
lhumerus -30.9638 -24.8814 82.8639
lradius 110.583
lwrist 22.295
lhand -21.336 0.45282
lfingers 7.12502
lthumb 5.04997 30.3726
rfemur 2.44444 0.564802 19.0129
rtibia 14.5196
rfoot -18.5475 -7.94179
rtoes -9.44405
lfemur 2.52555 0.0947495 -16.2768
ltibia 9.05765
lfoot -10.1469 -0.377108
ltoes -4.43874
2247
root 3.38908 17.6929 0.165077 574.211 89.6316 575.903
lowerback 7.50819 0.250851 2.50212
upperback 0.348951 0.535467 -0.652368
thorax -3.82161 0.222623 -2.14006
lowerneck -0.718854 -4.95158 -4.97072
upperneck -3.8865 -6.3329 8.66843
head -0.636688 -3.1633 3.67535
rclavicle 3.27995e-015 -5.91384e-015
rhumerus -40.2509 17.9143 -76.3195
rradius 114.039
rwrist 28.7456
rhand -9.92656 10.191
rfingers 7.12502
rthumb 16.0544 -19.1639
lclavicle 3.27995e-015 -5.91384e-015
lhumerus -30.3727 -24.9476 82.3073
lradius 111.869
lwrist 21.9501
lhand -21.3015 -0.695197
lfingers 7.12502
lthumb 5.08319 29.2238
rfemur 2.45961 0.554816 19.0772
rtibia 14.5119
rfoot -18.4618 -7.99665
rtoes -10.076
lfemur 2.58261 0.1703 -16.2085
ltibia 9.05217
lfoot -10.1888 -0.403971
ltoes -3.90792
2248
root 3.39201 17.694 0.163406 582.642 89.6499 584.362
lowerback 7.43575 0.248081 2.54759
upperback 0.373834 0.534127 -0.640546
thorax -3.75496 0.222591 -2.15228
lowerneck -0.756485 -4.94547 -4.94071
upperneck -3.76448 -6.3344 8.5765
head -0.594986 -3.16245 3.63381
rclavicle 5.35476e-015 -1.88845e-015
rhumerus -39.7032 18.3054 -75.6839
rradius 115.365
rwrist 29.1465
rhand -10.5627 10.6498
rfingers 7.12502
rthumb 15.4417 -18.7534
lclavicle 5.35476e-015 -1.88845e-015
lhumerus -29.852 -25.2108 81.8411
lradius 113.106
lwrist 21.3967
lhand -22.1107 -1.74634
lfingers 7.12502
lthumb 4.30187 28.19
rfemur 2.46813 0.535877 19.1021
rtibia 14.5449
rfoot -18.3868 -8.07772
rtoes -10.9603
lfemur 2.67647 0.215181 -16.1807
ltibia 8.98681
lfoot -10.1923 -0.388294
ltoes -3.68369
2249
root 3.39347 17.6934 0.162741 579.275 89.7252 581.011
lowerback 7.3947 0.241058 2.49443
upperback 0.384222 0.518535 -0.657454
thorax -3.72231 0.21624 -2.13774
lowerneck -0.853753 -4.92974 -4.92248
upperneck -3.61531 -6.32153 8.50992
head -0.533936 -3.15282 3.60098
rclavicle -1.80459e-015 -3.47873e-016
rhumerus -39.1081 18.7812 -75.0947
rradius 116.586
rwrist 29.7419
rhand -11.7031 10.4842
rfingers 7.12502
rthumb 14.3431 -19.0003
lclavicle -1.80459e-015 -3.47873e-016
lhumerus -29.434 -25.5922 81.4811
lradius 114.176
lwrist 20.4148
lhand -23.6323 -2.98866
lfingers 7.12502
lthumb 2.83245 26.9723
rfemur 2.48619 0.58857 19.0202
rtibia 14.5722
rfoot -18.4318 -7.95135
rtoes -10.4551
lfemur 2.73934 0.258799 -16.2569
ltibia 8.93451
lfoot -10.1648 -0.419459
ltoes -3.65915
2250
root 3.39363 17.692 0.162116 572.226 89.792 573.973
lowerback 7.378 0.244774 2.43691
upperback 0.377301 0.517704 -0.669757
thorax -3.72053 0.216599 -2.11788
lowerneck -0.958578 -4.92102 -4.92348
upperneck -3.43536 -6.31975 8.44522
head -0.460281 -3.14825 3.57155
rclavicle 2.95071e-015 -2.88238e-015
rhumerus -38.5227 19.2888 -74.4758
rradius 117.72
rwrist 30.416
rhand -13.4064 9.97126
rfingers 7.12502
rthumb 12.7014 -19.6225
lclavicle 2.95071e-015 -2.88238e-015
lhumerus -28.9671 -25.8991 81.0883
lradius 115.153
lwrist 19.7087
lhand -24.712 -4.01593
lfingers 7.12502
lthumb 1.78972 25.9563
rfemur 2.47706 0.627458 18.9407
rtibia 14.6271
rfoot -18.4819 -7.86109
rtoes -10.0021
lfemur 2.81811 0.295017 -16.3385
ltibia 8.82479
lfoot -10.103 -0.41688
ltoes -3.85111
2251
root 3.39307 17.6918 0.161693 582.455 89.7856 584.201
lowerback 7.34433 0.250644 2.48377
upperback 0.371281 0.528643 -0.664859
thorax -3.70695 0.22133 -2.14
lowerneck -0.949989 -4.91642 -4.89488
upperneck -3.36729 -6.31986 8.38839
head -0.442977 -3.14825 3.54541
rclavicle 4.78636e-015 -9.44227e-016
rhumerus -37.9735 19.6288 -73.8261
rradius 118.82
rwrist 30.7586
rhand -14.7768 10.0782
rfingers 7.12502
rthumb 11.38 -19.593
lclavicle 4.78636e-015 -9.44227e-016
lhumerus -28.4776 -26.1884 80.6762
lradius 116.084
lwrist 19.2097
lhand -25.5163 -4.62459
lfingers 7.12502
lthumb 1.01295 25.3528
rfemur 2.43014 0.603584 18.9742
rtibia 14.693
rfoot -18.4514 -7.89848
rtoes -10.558
lfemur 2.88754 0.312281 -16.3047
ltibia 8.69836
lfoot -10.0749 -0.384803
ltoes -4.13845
